<?xml version="1.0" encoding="iso-8859-1"?>
<!-- Generator: Adobe Illustrator 19.0.0, SVG Export Plug-In . SVG Version: 6.00 Build 0)  -->
<svg version="1.1" id="Capa_1" xmlns="http://www.w3.org/2000/svg" xmlns:xlink="http://www.w3.org/1999/xlink" x="0px" y="0px"
	 viewBox="0 0 295.448 295.448" style="enable-background:new 0 0 295.448 295.448;" xml:space="preserve">
<path style="fill:#FFCE94;" d="M140.475,1.804L26.444,62.339c-3.163,1.679-5.14,4.967-5.14,8.549v151.955
	c0,6.138,3.449,11.754,8.922,14.53l111.821,56.716c3.568,1.81,7.785,1.81,11.352,0l111.822-56.716
	c5.473-2.776,8.922-8.393,8.922-14.53V70.888c0-3.582-1.977-6.87-5.141-8.549L154.972,1.804
	C150.44-0.601,145.008-0.601,140.475,1.804z"/>
<path style="fill:#FCB043;" d="M147.724,295.448c1.946,0,3.893-0.452,5.676-1.357l111.822-56.716
	c5.473-2.776,8.922-8.393,8.922-14.53V70.888c0-1.582-0.404-3.096-1.107-4.45l-125.313,66.743V295.448z"/>
<path style="fill:#E2791B;" d="M147.724,133.181L22.412,66.437c-0.704,1.354-1.108,2.868-1.108,4.45v151.956
	c0,6.138,3.449,11.754,8.922,14.53l111.821,56.716c1.784,0.905,3.73,1.357,5.676,1.357V133.181H147.724z"/>
<path style="fill:#DEF2FC;" d="M192.401,21.673L65.579,89.212v21.611c0,2.074,1.144,3.979,2.974,4.955l22.04,11.747
	c1.749,0.932,3.86-0.335,3.86-2.317v-20.17l127.019-67.932L192.401,21.673z"/>
<g>
	<path style="fill:#403A46;" d="M165.993,252.325l33.833-16.181c4.332-2.071,7.045-6.492,6.931-11.292l-0.003-0.15
		c-0.094-3.96-4.298-6.459-7.822-4.649l-32.938,16.916v15.356H165.993z"/>
	<path style="fill:#403A46;" d="M165.993,275.919l18.579-8.631c4.399-2.045,7.17-6.501,7.055-11.351l0,0
		c-0.094-3.974-4.322-6.472-7.848-4.636l-17.786,9.26V275.919z"/>
</g>
<path style="fill:#B6C8CE;" d="M65.578,89.429v21.394c0,2.074,1.144,3.979,2.974,4.955l22.04,11.747
	c1.749,0.932,3.86-0.335,3.86-2.317v-20.17l0.215-0.115C87.202,100.947,75.077,94.488,65.578,89.429z"/>
<g>
</g>
<g>
</g>
<g>
</g>
<g>
</g>
<g>
</g>
<g>
</g>
<g>
</g>
<g>
</g>
<g>
</g>
<g>
</g>
<g>
</g>
<g>
</g>
<g>
</g>
<g>
</g>
<g>
</g>
</svg>
