<?xml version="1.0" encoding="iso-8859-1"?>
<!-- Generator: Adobe Illustrator 19.0.0, SVG Export Plug-In . SVG Version: 6.00 Build 0)  -->
<svg version="1.1" id="Capa_1" xmlns="http://www.w3.org/2000/svg" xmlns:xlink="http://www.w3.org/1999/xlink" x="0px" y="0px"
	 viewBox="0 0 392.8 392.8" style="enable-background:new 0 0 392.8 392.8;" xml:space="preserve">
<polygon style="fill:#D9AC80;" points="196.4,0 292,49.2 388,98 292,147.2 196.4,196.4 100.8,147.2 4.8,98 100.8,49.2 "/>
<polygon style="fill:#F2D3BA;" points="109.2,44.8 300.8,142.8 283.6,151.6 92,53.6 "/>
<g>
	<path style="fill:#A67E4F;" d="M388,294.8V98l-96,49.2l-95.6,49.2v196.4L388,294.8z"/>
	<path style="fill:#643513;" d="M274,182.4l44.8-22c6.8-3.2,14.8-0.8,17.2,5.6c2.4,6.4-1.2,14.4-8,18l-44.4,22
		c-6.8,3.2-14.8,0.8-17.2-5.6C263.6,194,267.2,185.6,274,182.4z"/>
	<polygon style="fill:#926E43;" points="196.4,392.8 196.4,196.4 100.8,147.2 4.8,98 4.8,294.8 	"/>
</g>
<g>
</g>
<g>
</g>
<g>
</g>
<g>
</g>
<g>
</g>
<g>
</g>
<g>
</g>
<g>
</g>
<g>
</g>
<g>
</g>
<g>
</g>
<g>
</g>
<g>
</g>
<g>
</g>
<g>
</g>
</svg>
