<?xml version="1.0" encoding="iso-8859-1"?>
<!-- Generator: Adobe Illustrator 19.0.0, SVG Export Plug-In . SVG Version: 6.00 Build 0)  -->
<svg version="1.1" id="Capa_1" xmlns="http://www.w3.org/2000/svg" xmlns:xlink="http://www.w3.org/1999/xlink" x="0px" y="0px"
	 viewBox="0 0 512 512" style="enable-background:new 0 0 512 512;" xml:space="preserve">
<path style="fill:#FF9901;" d="M512,124.574l-10.487,5.732L6.105,131.56L0,124.574l61.721-106.5
	c1.121-1.935,3.188-3.126,5.424-3.126h380.129c2.275,0,4.371,1.232,5.477,3.219L512,124.574z"/>
<path style="fill:#FFC473;" d="M505.856,497.051H6.144C2.751,497.051,0,494.3,0,490.908V124.574h512v366.333
	C512,494.3,509.249,497.051,505.856,497.051z"/>
<path style="fill:#FFB74F;" d="M436.8,124.574v62.135c0,158.157-128.211,286.368-286.368,286.368H0v17.83
	c0,3.393,2.751,6.144,6.144,6.144h499.712c3.393,0,6.144-2.751,6.144-6.144V124.574H436.8z"/>
<path style="fill:#FF8900;" d="M447.274,14.949h-71.54l61.041,109.625H512L452.751,18.168
	C451.645,16.181,449.549,14.949,447.274,14.949z"/>
<polygon style="fill:#E67500;" points="306.453,124.574 205.547,124.574 218.069,14.949 294.422,14.949 "/>
<path style="fill:#FFB74F;" d="M298.912,225.479h-85.825c-4.164,0-7.54-3.376-7.54-7.54v-93.365h100.905v93.365
	C306.453,222.103,303.077,225.479,298.912,225.479z"/>
<path style="fill:#FFDBA9;" d="M154.114,446.402H55.02c-3.481,0-6.304-2.822-6.304-6.304V354.63c0-3.481,2.822-6.304,6.304-6.304
	h99.094c3.481,0,6.304,2.822,6.304,6.304v85.469C160.417,443.58,157.595,446.402,154.114,446.402z"/>
<g>
	<path style="fill:#E67500;" d="M153.868,180.544H48.716c-4.452,0-8.06-3.609-8.06-8.06s3.608-8.06,8.06-8.06h105.152
		c4.452,0,8.06,3.609,8.06,8.06C161.928,176.936,158.32,180.544,153.868,180.544z"/>
	<path style="fill:#E67500;" d="M118.751,215.202H48.716c-4.452,0-8.06-3.609-8.06-8.06s3.608-8.06,8.06-8.06h70.035
		c4.452,0,8.06,3.609,8.06,8.06C126.811,211.594,123.203,215.202,118.751,215.202z"/>
</g>
<path style="fill:#57555C;" d="M465.338,374.641V354.94c0-3.653-2.961-6.614-6.614-6.614h-60.93c-3.653,0-6.614,2.961-6.614,6.614
	v19.701c0,17.727,12.443,32.539,29.069,36.202c-0.031,0.288-0.05,0.581-0.05,0.877v28.082h-16.498c-4.413,0-8.261,3.401-8.394,7.812
	c-0.137,4.564,3.522,8.308,8.056,8.308h49.453c4.413,0,8.261-3.401,8.394-7.812c0.137-4.565-3.522-8.308-8.056-8.308h-16.836V411.72
	c0-0.297-0.018-0.589-0.05-0.877C452.895,407.18,465.338,392.368,465.338,374.641z"/>
<g>
</g>
<g>
</g>
<g>
</g>
<g>
</g>
<g>
</g>
<g>
</g>
<g>
</g>
<g>
</g>
<g>
</g>
<g>
</g>
<g>
</g>
<g>
</g>
<g>
</g>
<g>
</g>
<g>
</g>
</svg>
